<svg version="1.1" id="Layer_1" xmlns="http://www.w3.org/2000/svg" xmlns:xlink="http://www.w3.org/1999/xlink" x="0px" y="0px"
	 width="100%" viewBox="0 0 1024 576" enable-background="new 0 0 1024 576" xml:space="preserve">
<path fill="#000000" opacity="1.000000" stroke="none" 
	d="
M239.629364,239.588196 
	C246.028381,233.566040 253.668045,232.249878 261.643219,232.208603 
	C279.127319,232.118103 296.620880,231.807495 314.094116,232.245285 
	C331.409729,232.679123 342.350800,244.504257 342.370819,261.817108 
	C342.394135,281.966400 342.417572,302.115845 342.375061,322.265076 
	C342.340790,338.500977 330.635101,350.251190 314.366608,350.321594 
	C296.215851,350.400116 278.064514,350.361420 259.913483,350.342468 
	C242.373779,350.324188 230.455765,339.177826 230.145096,321.670288 
	C229.787689,301.527679 229.957397,281.372253 230.153625,261.224884 
	C230.234283,252.944916 233.007355,245.549515 239.629364,239.588196 
M327.773865,274.501099 
	C327.770233,269.669769 327.850525,264.836578 327.743866,260.007538 
	C327.572693,252.259506 322.555634,247.353638 314.713959,247.334671 
	C296.221954,247.289963 277.729584,247.290848 259.237640,247.349091 
	C250.004410,247.378159 245.291595,252.012070 245.267975,261.114777 
	C245.215668,281.272766 245.225204,301.431061 245.277908,321.589050 
	C245.301956,330.784912 250.283859,335.627502 259.596832,335.639343 
	C277.589142,335.662140 295.581543,335.656738 313.573883,335.646301 
	C322.841888,335.640930 327.729980,330.799438 327.757843,321.481140 
	C327.803711,306.154419 327.772552,290.827515 327.773865,274.501099 
z"/>
<path fill="#000000" opacity="1.000000" stroke="none" 
	d="
M793.565918,284.750732 
	C795.255859,289.186157 796.083679,293.382660 796.201172,297.759979 
	C796.293335,301.190582 794.852356,302.482819 791.445618,302.441284 
	C781.796509,302.323517 772.144775,302.388275 762.494385,302.440460 
	C760.208862,302.452820 757.843994,302.091461 755.304321,303.447052 
	C755.852783,308.117432 758.484863,311.212524 762.612732,313.170471 
	C767.517700,315.497009 772.218506,315.074677 776.822388,312.115662 
	C778.754761,310.873657 779.575745,307.721802 782.193665,308.066132 
	C786.125366,308.583252 789.815491,310.152924 793.146606,312.294739 
	C790.445984,322.173065 778.725464,328.353455 765.049194,327.309021 
	C751.988770,326.311584 741.360596,315.187622 739.951843,301.041016 
	C738.534363,286.806793 747.184937,273.213867 760.013794,269.516876 
	C773.739990,265.561310 787.085510,271.507904 793.565918,284.750732 
M778.298401,291.573792 
	C781.041687,291.038574 780.062012,289.206970 779.507874,287.732788 
	C777.839417,283.294312 771.941406,280.080963 766.845032,280.712677 
	C760.872986,281.452911 756.791077,285.443909 756.164551,291.631531 
	C763.308899,291.631531 770.412781,291.631531 778.298401,291.573792 
z"/>
<path fill="#000000" opacity="1.000000" stroke="none" 
	d="
M517.803345,324.481415 
	C496.937866,313.251221 498.892273,282.923157 515.643372,272.828461 
	C525.315430,266.999817 535.388794,266.718506 545.042847,272.350006 
	C554.847168,278.069122 558.709106,287.299103 558.354431,298.526215 
	C558.239319,302.169495 556.141052,302.411652 553.405640,302.402130 
	C543.416626,302.367279 533.427246,302.367767 523.438416,302.425049 
	C521.676208,302.435120 519.761841,301.880737 517.966370,303.449249 
	C518.172607,308.199585 520.964478,311.242249 525.049194,313.228394 
	C529.950989,315.611847 534.795715,315.170990 539.232910,312.037506 
	C545.701965,307.469177 548.550781,307.523193 555.471924,312.712036 
	C552.664307,323.592224 534.566284,332.190002 517.803345,324.481415 
M532.837219,280.817352 
	C524.224670,280.382599 519.216919,284.020233 518.878784,291.705231 
	C524.467957,291.705231 530.053101,291.838409 535.626587,291.641266 
	C537.935425,291.559601 541.461060,293.062317 542.299194,290.233307 
	C543.285828,286.903046 540.328613,284.514313 537.668884,282.720703 
	C536.464600,281.908600 534.946838,281.561401 532.837219,280.817352 
z"/>
<path fill="#000000" opacity="1.000000" stroke="none" 
	d="
M395.553253,273.424805 
	C416.449249,261.030762 440.482117,273.302551 442.126617,296.850739 
	C443.161530,311.670288 430.405396,326.328918 415.612183,327.319550 
	C398.128845,328.490387 383.807281,317.059296 382.820526,300.956604 
	C382.131744,289.716187 385.943420,280.388092 395.553253,273.424805 
M419.946625,284.391235 
	C418.571503,283.811798 417.243774,283.043274 415.813293,282.684509 
	C408.021790,280.730225 400.470184,285.419922 398.210938,293.520905 
	C395.844177,302.007355 400.252625,310.667908 408.207306,313.159180 
	C415.630554,315.484070 423.273346,311.381989 426.045288,303.585144 
	C428.472717,296.757507 426.394836,289.626038 419.946625,284.391235 
z"/>
<path fill="#000000" opacity="1.000000" stroke="none" 
	d="
M695.016968,269.810211 
	C703.142212,269.789276 703.151978,269.789276 703.148254,277.608429 
	C703.141479,291.931854 703.011719,306.256500 703.174072,320.577911 
	C703.223755,324.958771 701.559204,326.747498 697.281555,326.240112 
	C693.384705,325.777863 688.046753,328.376282 687.462219,320.826202 
	C682.190918,325.252075 676.808228,327.686676 670.270325,327.431763 
	C659.202271,327.000153 651.609802,319.463287 650.976562,306.697510 
	C650.440857,295.898621 650.890015,285.052368 650.828613,274.227509 
	C650.810486,271.033722 652.276245,269.922882 655.392395,269.780121 
	C665.972595,269.295471 666.069519,269.299438 666.086670,279.756531 
	C666.098938,287.251312 666.026062,294.747253 666.134033,302.240601 
	C666.246399,310.039154 669.552673,313.761902 676.132385,313.788239 
	C682.579651,313.814056 687.460205,309.022308 687.667419,301.887970 
	C687.913879,293.400543 687.752563,284.901459 687.776978,276.407410 
	C687.795654,269.908630 687.801880,269.908661 695.016968,269.810211 
z"/>
<path fill="#000000" opacity="1.000000" stroke="none" 
	d="
M460.684387,317.201965 
	C455.019745,301.697693 449.476715,286.564117 443.739197,270.899628 
	C448.853638,269.050781 453.617401,269.707062 458.276642,270.170807 
	C460.405823,270.382751 460.606995,272.788086 461.164398,274.470947 
	C464.768188,285.351227 468.313049,296.251068 472.316620,308.487488 
	C474.695404,301.434113 476.694946,295.589752 478.633820,289.725311 
	C479.835114,286.091919 480.916626,282.419037 482.100372,278.779633 
	C485.016479,269.814148 488.490967,267.910706 497.887939,269.840759 
	C501.622467,270.607819 500.106598,272.819824 499.396057,274.742035 
	C494.953522,286.760071 490.458771,298.758850 485.978455,310.762939 
	C484.523895,314.660126 482.948914,318.516968 481.638672,322.461914 
	C480.699371,325.290100 478.935120,326.489563 476.034637,326.245789 
	C475.207947,326.176300 474.370209,326.247009 473.537781,326.235260 
	C462.934204,326.085297 464.639465,327.464813 460.684387,317.201965 
z"/>
<path fill="#000000" opacity="1.000000" stroke="none" 
	d="
M715.679810,262.006226 
	C715.693298,257.678101 715.762451,253.847839 715.701843,250.019608 
	C715.662170,247.512314 716.883606,246.359512 719.270630,246.211319 
	C719.602783,246.190689 719.934387,246.159637 720.265930,246.130280 
	C730.472595,245.226578 731.001343,245.755569 730.982971,255.921234 
	C730.944702,277.066437 730.997070,298.211823 730.915283,319.356781 
	C730.906250,321.684204 731.912048,325.077271 728.742798,325.812012 
	C724.920166,326.698212 720.701660,327.076019 716.972290,325.457214 
	C714.919250,324.566071 715.715088,321.872742 715.710693,319.947510 
	C715.666565,300.800049 715.681885,281.652496 715.679810,262.006226 
z"/>
<path fill="#000000" opacity="1.000000" stroke="none" 
	d="
M608.910461,304.999542 
	C608.919067,295.346069 608.853149,286.191406 608.979553,277.039398 
	C609.022522,273.930420 607.972900,270.100403 613.327881,269.788361 
	C621.865906,269.290833 622.629089,269.552704 623.918030,275.921356 
	C627.660828,273.056854 630.978638,269.757446 635.742798,268.944885 
	C641.892151,267.896118 643.171204,268.885162 643.179382,275.128082 
	C643.181335,276.625763 643.104187,278.124908 643.147156,279.620941 
	C643.231262,282.554047 641.777344,283.628418 638.921265,283.903351 
	C626.682373,285.081573 624.276367,287.833221 624.212402,300.283630 
	C624.176514,307.273499 624.087646,314.265198 624.208252,321.252899 
	C624.270325,324.847015 622.876343,326.221069 619.211060,326.302094 
	C608.923401,326.529602 608.926208,326.659851 608.918884,316.483795 
	C608.916199,312.822327 608.913757,309.160858 608.910461,304.999542 
z"/>
<path fill="#000000" opacity="1.000000" stroke="none" 
	d="
M583.975281,274.359802 
	C587.537231,270.897217 591.403259,268.926697 596.157959,268.694824 
	C599.450012,268.534302 601.267517,269.641510 601.110657,273.168335 
	C601.044250,274.661285 600.961975,276.175049 601.126099,277.652771 
	C601.650940,282.378113 599.716125,284.003082 594.907898,284.017395 
	C586.598328,284.042145 582.473511,288.492188 582.340210,296.831787 
	C582.210083,304.974518 582.188416,313.122864 582.343201,321.264526 
	C582.413208,324.944519 580.919495,326.178436 577.335510,326.264252 
	C567.560120,326.498383 567.384338,326.613800 567.627319,316.923767 
	C567.972961,303.135071 566.783936,289.363434 567.464661,275.563690 
	C567.672852,271.343201 568.843628,270.068573 573.155579,269.595703 
	C578.148926,269.048035 580.797913,271.670868 583.975281,274.359802 
z"/>
<path fill="#000000" opacity="1.000000" stroke="none" 
	d="
M287.885376,282.429138 
	C288.999390,285.341095 291.265625,284.657623 293.139648,284.683380 
	C299.223541,284.766968 305.309326,284.714630 311.394379,284.714630 
	C311.665161,285.168823 311.935944,285.623016 312.206696,286.077209 
	C303.928467,297.015808 295.650208,307.954437 286.724792,319.748169 
	C285.061523,315.228027 285.781189,311.769104 285.703033,308.421509 
	C285.430481,296.744049 287.182556,298.422302 275.190582,298.193451 
	C270.597015,298.105743 265.953430,298.738892 259.849609,297.319519 
	C268.903412,285.371216 277.448151,274.094696 285.992920,262.818146 
	C286.477234,263.027039 286.961578,263.235901 287.445923,263.444763 
	C288.524353,269.596100 287.688263,275.843414 287.885376,282.429138 
z"/>
</svg>